<svg xmlns="http://www.w3.org/2000/svg" viewBox="0 0 800 980">
  <defs><linearGradient id="d" x2="0" y2="1"><stop stop-color="#aab39f"/><stop offset="1" stop-color="#687663"/></linearGradient><filter id="s"><feDropShadow dy="20" stdDeviation="18" flood-color="#2d382f" flood-opacity=".26"/></filter></defs>
  <rect width="800" height="980" fill="url(#d)"/><circle cx="160" cy="164" r="175" fill="#e9dfcb" opacity=".28"/>
  <ellipse cx="405" cy="828" rx="292" ry="66" fill="#26332a" opacity=".2"/>
  <g filter="url(#s)">
    <path d="M175 510c0-41 33-74 74-74h104c41 0 74 33 74 74v300H175z" fill="#bc7459"/><ellipse cx="301" cy="510" rx="126" ry="55" fill="#d28b70"/><path d="M301 468c-21-22-5-55 12-72 17 23 20 52-12 72z" fill="#b65336"/><path d="M305 468v43" stroke="#4a3d33" stroke-width="5"/>
    <path d="M380 376c0-45 36-81 81-81h91c45 0 81 36 81 81v434H380z" fill="#eee5d5"/><ellipse cx="506" cy="376" rx="126" ry="57" fill="#faf2e4"/><path d="M506 330c-23-25-6-61 13-81 18 27 22 57-13 81z" fill="#c26b43"/><path d="M510 330v47" stroke="#4a3d33" stroke-width="5"/>
  </g>
  <g fill="#d9c5a8" opacity=".7"><circle cx="676" cy="698" r="16"/><circle cx="704" cy="731" r="11"/><circle cx="657" cy="746" r="13"/></g>
</svg>
